<svg width="225" height="60" viewBox="0 0 225 60" fill="none" xmlns="http://www.w3.org/2000/svg">
<rect width="225" height="60" rx="10" fill="#26CBFF"/>
<path d="M33.7891 36H40.7383V39H30.1562V21.8672H33.7891V36ZM53.9805 38.3086C52.7773 38.9258 51.2422 39.2344 49.375 39.2344C47.2656 39.2344 45.6172 38.6523 44.4297 37.4883C43.2422 36.3242 42.6484 34.6602 42.6484 32.4961C42.6484 30.332 43.1953 28.6562 44.2891 27.4688C45.3828 26.2578 46.8789 25.6523 48.7773 25.6523C50.6758 25.6523 52.1367 26.1797 53.1602 27.2344C54.1992 28.2812 54.7188 29.7383 54.7188 31.6055V33.3398H46.2695C46.3086 34.3633 46.6094 35.1602 47.1719 35.7305C47.7422 36.293 48.5312 36.5742 49.5391 36.5742C51.0234 36.5742 52.5039 36.2305 53.9805 35.543V38.3086ZM51.3672 30.9609C51.3516 30.0859 51.1211 29.4062 50.6758 28.9219C50.2383 28.4375 49.6406 28.1953 48.8828 28.1953C48.125 28.1953 47.5273 28.4336 47.0898 28.9102C46.6602 29.3867 46.4141 30.0703 46.3516 30.9609H51.3672ZM61.5859 25.8984H65.2539V28.582H61.5859V34.8984C61.5859 35.3906 61.7227 35.7617 61.9961 36.0117C62.2773 36.2617 62.6914 36.3867 63.2383 36.3867C63.7852 36.3867 64.5039 36.25 65.3945 35.9766V38.6367C64.5039 39.0352 63.3789 39.2344 62.0195 39.2344C60.668 39.2344 59.6602 38.8789 58.9961 38.168C58.3398 37.4492 58.0117 36.3594 58.0117 34.8984V28.582H56.3008V27.0703L58.2695 25.875L59.3008 23.1094H61.5859V25.8984ZM70.9375 21.8672L71.1016 22.125C70.7188 23.6484 70.0312 25.5195 69.0391 27.7383H66.4727C67.0039 25.4805 67.3945 23.5234 67.6445 21.8672H70.9375ZM76.9258 36.6211C78.2227 36.6211 78.8711 36.2461 78.8711 35.4961C78.8711 35.1133 78.6992 34.8086 78.3555 34.582C78.0195 34.3555 77.2461 33.9727 76.0352 33.4336C75.0273 33.0117 74.2852 32.6211 73.8086 32.2617C73.3398 31.9023 72.9961 31.4922 72.7773 31.0312C72.5664 30.5625 72.4609 29.9883 72.4609 29.3086C72.4609 28.1445 72.9102 27.2461 73.8086 26.6133C74.7148 25.9727 75.9805 25.6523 77.6055 25.6523C79.2305 25.6523 80.7812 25.9961 82.2578 26.6836L81.1797 29.2617C80.4219 28.9414 79.7695 28.7031 79.2227 28.5469C78.6836 28.3828 78.1406 28.3008 77.5938 28.3008C76.5391 28.3008 76.0117 28.5859 76.0117 29.1562C76.0117 29.4766 76.1836 29.7578 76.5273 30C76.8711 30.2344 77.582 30.5664 78.6602 30.9961C79.7461 31.4258 80.5273 31.8242 81.0039 32.1914C81.9336 32.8945 82.3984 33.8945 82.3984 35.1914C82.3984 36.4883 81.9297 37.4883 80.9922 38.1914C80.0547 38.8867 78.6992 39.2344 76.9258 39.2344C75.1523 39.2344 73.668 38.9805 72.4727 38.4727V35.5195C73.1445 35.832 73.8945 36.0938 74.7227 36.3047C75.5586 36.5156 76.293 36.6211 76.9258 36.6211ZM98.6289 39.2344C96.1367 39.2344 94.2305 38.4805 92.9102 36.9727C91.5898 35.4648 90.9297 33.293 90.9297 30.457C90.9297 30.418 90.9297 30.3789 90.9297 30.3398C90.9297 28.6211 91.2539 27.0977 91.9023 25.7695C92.5508 24.4336 93.4766 23.4102 94.6797 22.6992C95.8828 21.9805 97.2617 21.6211 98.8164 21.6211C98.8711 21.6211 98.9219 21.6211 98.9688 21.6211C100.648 21.6211 102.32 22.0234 103.984 22.8281L102.812 25.7812C101.227 25.0234 99.9453 24.6445 98.9688 24.6445C97.6016 24.6445 96.543 25.1602 95.793 26.1914C95.043 27.2148 94.668 28.6445 94.668 30.4805C94.668 34.3008 96.1016 36.2109 98.9688 36.2109C100.164 36.2109 101.621 35.9102 103.34 35.3086V38.3555C101.934 38.9414 100.363 39.2344 98.6289 39.2344ZM112.41 25.6523C113.613 25.6523 114.688 25.9258 115.633 26.4727C116.586 27.0117 117.32 27.793 117.836 28.8164C118.359 29.832 118.621 30.9961 118.621 32.3086C118.621 32.3477 118.621 32.3867 118.621 32.4258C118.621 34.5586 118.059 36.2266 116.934 37.4297C115.809 38.6328 114.242 39.2344 112.234 39.2344C112.203 39.2344 112.168 39.2344 112.129 39.2344C110.926 39.2344 109.848 38.9609 108.895 38.4141C107.949 37.8594 107.215 37.0703 106.691 36.0469C106.176 35.0234 105.918 33.8555 105.918 32.543C105.918 32.5039 105.918 32.4648 105.918 32.4258C105.918 30.2852 106.477 28.625 107.594 27.4453C108.711 26.25 110.281 25.6523 112.305 25.6523C112.336 25.6523 112.371 25.6523 112.41 25.6523ZM114.32 29.4961C113.891 28.8555 113.203 28.5352 112.258 28.5352C111.312 28.5352 110.625 28.8516 110.195 29.4844C109.773 30.1172 109.562 31.0977 109.562 32.4258C109.562 33.7461 109.777 34.7344 110.207 35.3906C110.645 36.0391 111.332 36.3633 112.27 36.3633C113.215 36.3633 113.898 36.0391 114.32 35.3906C114.75 34.7422 114.965 33.7578 114.965 32.4375C114.965 31.1094 114.75 30.1289 114.32 29.4961ZM129.027 25.6523C130.543 25.6523 131.695 26.0664 132.484 26.8945C133.281 27.7148 133.68 28.9023 133.68 30.457V39H130.105V31.3477C130.105 30.3945 129.934 29.6836 129.59 29.2148C129.254 28.7461 128.723 28.5117 127.996 28.5117C126.996 28.5117 126.273 28.8477 125.828 29.5195C125.383 30.1914 125.16 31.2969 125.16 32.8359V39H121.586V25.8984H124.316L124.797 27.5859H124.996C125.387 26.9531 125.93 26.4727 126.625 26.1445C127.328 25.8164 128.129 25.6523 129.027 25.6523ZM144.801 25.6523C146.316 25.6523 147.469 26.0664 148.258 26.8945C149.055 27.7148 149.453 28.9023 149.453 30.457V39H145.879V31.3477C145.879 30.3945 145.707 29.6836 145.363 29.2148C145.027 28.7461 144.496 28.5117 143.77 28.5117C142.77 28.5117 142.047 28.8477 141.602 29.5195C141.156 30.1914 140.934 31.2969 140.934 32.8359V39H137.359V25.8984H140.09L140.57 27.5859H140.77C141.16 26.9531 141.703 26.4727 142.398 26.1445C143.102 25.8164 143.902 25.6523 144.801 25.6523ZM163.668 38.3086C162.465 38.9258 160.93 39.2344 159.062 39.2344C156.953 39.2344 155.305 38.6523 154.117 37.4883C152.93 36.3242 152.336 34.6602 152.336 32.4961C152.336 30.332 152.883 28.6562 153.977 27.4688C155.07 26.2578 156.566 25.6523 158.465 25.6523C160.363 25.6523 161.824 26.1797 162.848 27.2344C163.887 28.2812 164.406 29.7383 164.406 31.6055V33.3398H155.957C155.996 34.3633 156.297 35.1602 156.859 35.7305C157.43 36.293 158.219 36.5742 159.227 36.5742C160.711 36.5742 162.191 36.2305 163.668 35.543V38.3086ZM161.055 30.9609C161.039 30.0859 160.809 29.4062 160.363 28.9219C159.926 28.4375 159.328 28.1953 158.57 28.1953C157.812 28.1953 157.215 28.4336 156.777 28.9102C156.348 29.3867 156.102 30.0703 156.039 30.9609H161.055ZM172.633 39.2344C168.555 39.2344 166.516 36.9961 166.516 32.5195C166.516 30.3008 167.07 28.6016 168.18 27.4219C169.289 26.2422 170.879 25.6523 172.949 25.6523C174.473 25.6523 175.828 25.9492 177.016 26.543L175.973 29.3086C174.707 28.793 173.699 28.5352 172.949 28.5352C171.09 28.5352 170.16 29.8359 170.16 32.4375C170.16 35.0391 171.09 36.3398 172.949 36.3398C174.262 36.3398 175.484 35.9609 176.617 35.2031V38.2617C176.008 38.6523 175.422 38.9062 174.859 39.0234C174.273 39.1641 173.531 39.2344 172.633 39.2344ZM183.625 25.8984H187.293V28.582H183.625V34.8984C183.625 35.3906 183.762 35.7617 184.035 36.0117C184.316 36.2617 184.73 36.3867 185.277 36.3867C185.824 36.3867 186.543 36.25 187.434 35.9766V38.6367C186.543 39.0352 185.418 39.2344 184.059 39.2344C182.707 39.2344 181.699 38.8789 181.035 38.168C180.379 37.4492 180.051 36.3594 180.051 34.8984V28.582H178.34V27.0703L180.309 25.875L181.34 23.1094H183.625V25.8984Z" fill="white"/>
</svg>
