<svg width="48" height="27" viewBox="0 0 48 27" fill="none" xmlns="http://www.w3.org/2000/svg">
<path d="M19.932 4.832H19.752L17.628 9.044L11.616 19.988L5.604 9.044L3.48 4.832H3.3V26H0.348V0.872H4.38L11.58 14.408H11.76L18.996 0.872H22.884V26H19.932V4.832Z" fill="black"/>
<path d="M38.4188 26.432C35.2268 26.432 32.7428 25.352 30.9668 23.192C29.1908 21.008 28.3028 17.804 28.3028 13.58C28.3028 9.356 29.1908 6.116 30.9668 3.86C32.7428 1.58 35.2268 0.439999 38.4188 0.439999C40.5308 0.439999 42.2948 0.919999 43.7108 1.88C45.1508 2.84 46.2668 4.196 47.0588 5.948L44.6108 7.424C44.1068 6.128 43.3388 5.096 42.3068 4.328C41.2748 3.536 39.9788 3.14 38.4188 3.14C37.3388 3.14 36.3668 3.344 35.5028 3.752C34.6628 4.16 33.9428 4.748 33.3428 5.516C32.7668 6.26 32.3228 7.16 32.0108 8.216C31.6988 9.248 31.5428 10.412 31.5428 11.708V15.452C31.5428 18.044 32.1428 20.072 33.3428 21.536C34.5428 23 36.2348 23.732 38.4188 23.732C40.0268 23.732 41.3708 23.324 42.4508 22.508C43.5308 21.668 44.3228 20.564 44.8268 19.196L47.2388 20.708C46.4468 22.484 45.3068 23.888 43.8188 24.92C42.3308 25.928 40.5308 26.432 38.4188 26.432Z" fill="#26CBFF"/>
</svg>
