<svg width="101" height="84" viewBox="0 0 101 84" fill="none" xmlns="http://www.w3.org/2000/svg">
<rect width="101" height="84" fill="white"/>
<path d="M46.932 36.832H46.752L44.628 41.044L38.616 51.988L32.604 41.044L30.48 36.832H30.3V58H27.348V32.872H31.38L38.58 46.408H38.76L45.996 32.872H49.884V58H46.932V36.832Z" fill="black"/>
<path d="M65.4188 58.432C62.2268 58.432 59.7428 57.352 57.9668 55.192C56.1908 53.008 55.3028 49.804 55.3028 45.58C55.3028 41.356 56.1908 38.116 57.9668 35.86C59.7428 33.58 62.2268 32.44 65.4188 32.44C67.5308 32.44 69.2948 32.92 70.7108 33.88C72.1508 34.84 73.2668 36.196 74.0588 37.948L71.6108 39.424C71.1068 38.128 70.3388 37.096 69.3068 36.328C68.2748 35.536 66.9788 35.14 65.4188 35.14C64.3388 35.14 63.3668 35.344 62.5028 35.752C61.6628 36.16 60.9428 36.748 60.3428 37.516C59.7668 38.26 59.3228 39.16 59.0108 40.216C58.6988 41.248 58.5428 42.412 58.5428 43.708V47.452C58.5428 50.044 59.1428 52.072 60.3428 53.536C61.5428 55 63.2348 55.732 65.4188 55.732C67.0268 55.732 68.3708 55.324 69.4508 54.508C70.5308 53.668 71.3228 52.564 71.8268 51.196L74.2388 52.708C73.4468 54.484 72.3068 55.888 70.8188 56.92C69.3308 57.928 67.5308 58.432 65.4188 58.432Z" fill="#26CBFF"/>
</svg>
