<svg width="1440" height="1024" viewBox="0 0 1440 1024" fill="none" xmlns="http://www.w3.org/2000/svg">
<g clip-path="url(#clip0_105_5)">
<rect width="1440" height="1024" fill="white"/>
<path d="M1243.83 85.6616C1062.25 70.237 1080.86 -162.002 1138.8 80.8282C1196.73 323.658 1722.14 327.126 1407.96 233.031C1230.84 412.059 1224.74 209.38 1243.83 85.6616Z" stroke="#26CBFF" stroke-opacity="0.5"/>
<path d="M55.1339 586.453C70.5845 573.885 85.4371 558.558 99.2323 539.957C-120.794 497.515 42.897 506.196 55.1339 586.453ZM55.1339 586.453C-121.62 730.234 -376.635 513.019 -22.1886 707.219C43.1864 656.295 59.699 616.393 55.1339 586.453ZM55.1339 586.453C277.231 820.528 -238.542 1028.84 -25.1142 717.624C188.314 406.409 627.729 154.102 309.819 335.31C-8.09079 516.518 293.961 58.2228 305.705 349.943C317.448 641.663 223.437 952.77 233.135 660.412C89.1349 537.993 52.7737 898.119 236.06 650.007C419.347 401.895 381.164 169.758 286.505 418.228C191.846 666.698 69.0651 779.543 149.503 554.091C229.94 328.64 -95.3427 -17.9034 42.9105 246.931" stroke="#26CBFF" stroke-opacity="0.5"/>
<path d="M1515.21 801.822C756.42 1114.41 445.108 789.258 1200.52 945.855C1768.05 1063.51 1105.88 390.135 1807.28 812.933C1749.26 1123.07 861.099 559.561 1515.21 801.822Z" stroke="#26CBFF" stroke-opacity="0.5"/>
</g>
<defs>
<clipPath id="clip0_105_5">
<rect width="1440" height="1024" fill="white"/>
</clipPath>
</defs>
</svg>
